<svg xmlns="http://www.w3.org/2000/svg" xmlns:xlink="http://www.w3.org/1999/xlink" width="500" zoomAndPan="magnify" viewBox="0 0 375 374.999991" height="500" preserveAspectRatio="xMidYMid meet" version="1.0"><defs><g/><clipPath id="254c30a21a"><path d="M 109 96.921875 L 266 96.921875 L 266 228.171875 L 109 228.171875 Z M 109 96.921875 " clip-rule="nonzero"/></clipPath><clipPath id="ba69f2595e"><path d="M 58.621094 240.703125 L 70.296875 240.703125 L 70.296875 252.378906 L 58.621094 252.378906 Z M 58.621094 240.703125 " clip-rule="nonzero"/></clipPath><clipPath id="40179c90a9"><path d="M 64.457031 240.703125 C 61.234375 240.703125 58.621094 243.316406 58.621094 246.542969 C 58.621094 249.765625 61.234375 252.378906 64.457031 252.378906 C 67.683594 252.378906 70.296875 249.765625 70.296875 246.542969 C 70.296875 243.316406 67.683594 240.703125 64.457031 240.703125 Z M 64.457031 240.703125 " clip-rule="nonzero"/></clipPath><clipPath id="4aa4601343"><path d="M 304.703125 240.703125 L 316.378906 240.703125 L 316.378906 252.378906 L 304.703125 252.378906 Z M 304.703125 240.703125 " clip-rule="nonzero"/></clipPath><clipPath id="0f517efaf0"><path d="M 310.542969 240.703125 C 307.316406 240.703125 304.703125 243.316406 304.703125 246.542969 C 304.703125 249.765625 307.316406 252.378906 310.542969 252.378906 C 313.765625 252.378906 316.378906 249.765625 316.378906 246.542969 C 316.378906 243.316406 313.765625 240.703125 310.542969 240.703125 Z M 310.542969 240.703125 " clip-rule="nonzero"/></clipPath></defs><rect x="-37.5" width="450" fill="#ffffff" y="-37.499999" height="449.999989" fill-opacity="1"/><rect x="-37.5" width="450" fill="#e91e63" y="-37.499999" height="449.999989" fill-opacity="1"/><g clip-path="url(#254c30a21a)"><path fill="#ffffff" d="M 187.613281 222.570312 C 200.636719 206.863281 215.660156 213.941406 208.050781 196.820312 C 194.699219 210.855469 196.257812 176.109375 210.1875 180.707031 C 213.601562 181.832031 217.492188 196.984375 225.628906 196.683594 C 221.265625 191.640625 222.765625 184.964844 222.765625 184.964844 C 226.582031 190.007812 236.800781 185.101562 236.800781 185.101562 C 229.035156 184.828125 227.671875 178.152344 227.671875 178.152344 C 236.117188 186.191406 249.335938 172.976562 249.335938 172.976562 C 239.796875 179.105469 229.578125 171.613281 229.578125 171.613281 C 251.925781 176.382812 258.875 156.351562 258.875 156.351562 C 251.925781 166.570312 229.171875 165.617188 229.171875 165.617188 C 270.410156 159.429688 265.550781 124.46875 265.550781 124.46875 C 250.171875 152.074219 222.765625 157.441406 222.765625 157.441406 C 272.636719 135.230469 261.871094 96.945312 261.871094 96.945312 C 259.242188 136.503906 206.347656 128.363281 200.148438 158.257812 C 188.335938 145.542969 196.757812 134.84375 200.148438 140.683594 C 200.148438 140.683594 202.941406 134.003906 196.265625 133.9375 C 177.601562 124.46875 176.125 161.871094 175.078125 158.257812 C 166.558594 128.9375 121.460938 137.492188 113.351562 96.945312 C 113.351562 96.945312 102.585938 135.234375 152.457031 157.441406 C 152.457031 157.441406 123.863281 154.167969 109.671875 124.46875 C 109.671875 124.46875 105.5 160.628906 146.054688 165.617188 C 146.054688 165.617188 123.296875 166.570312 116.351562 156.351562 C 116.351562 156.351562 123.296875 176.382812 145.644531 171.613281 C 145.644531 171.613281 135.425781 179.105469 125.886719 172.976562 C 125.886719 172.976562 139.105469 186.191406 147.550781 178.152344 C 147.550781 178.152344 146.191406 184.828125 138.421875 185.101562 C 138.421875 185.101562 148.644531 190.007812 152.457031 184.964844 C 152.457031 184.964844 153.957031 191.640625 149.597656 196.683594 C 157.855469 196.988281 161.421875 181.796875 165.265625 180.632812 C 178.980469 176.492188 180.453125 210.777344 167.171875 196.820312 C 159.5625 213.941406 174.585938 206.863281 187.613281 222.574219 Z M 209.992188 208.257812 C 211.425781 217.855469 198.785156 214.566406 187.613281 228.042969 C 176.4375 214.566406 163.796875 217.855469 165.230469 208.257812 C 166.460938 214.691406 177.625 213.339844 187.613281 225.382812 C 197.597656 213.339844 208.761719 214.691406 209.992188 208.257812 Z M 193.195312 134.207031 C 193.195312 134.207031 192.089844 134.804688 190.808594 134.933594 C 188.914062 135.128906 190.535156 133.675781 190.996094 133.769531 Z M 193.195312 134.207031 " fill-opacity="1" fill-rule="evenodd"/></g><g clip-path="url(#ba69f2595e)"><g clip-path="url(#40179c90a9)"><path fill="#ffffff" d="M 58.621094 240.703125 L 70.296875 240.703125 L 70.296875 252.378906 L 58.621094 252.378906 Z M 58.621094 240.703125 " fill-opacity="1" fill-rule="nonzero"/></g></g><g clip-path="url(#4aa4601343)"><g clip-path="url(#0f517efaf0)"><path fill="#ffffff" d="M 304.703125 240.703125 L 316.378906 240.703125 L 316.378906 252.378906 L 304.703125 252.378906 Z M 304.703125 240.703125 " fill-opacity="1" fill-rule="nonzero"/></g></g><g fill="#ffffff" fill-opacity="1"><g transform="translate(84.011406, 256.368261)"><g><path d="M 5.328125 0 L 0.3125 -20.84375 L 5.234375 -20.84375 L 8.140625 -6.390625 L 11.203125 -20.84375 L 16.3125 -20.84375 L 19.40625 -6.390625 L 22.3125 -20.84375 L 27.234375 -20.84375 L 22.21875 0 L 16.9375 0 L 13.765625 -14.671875 L 10.609375 0 Z M 5.328125 0 "/></g></g></g><g fill="#ffffff" fill-opacity="1"><g transform="translate(111.552464, 256.368261)"><g><path d="M 1.375 0 L 1.375 -20.84375 L 6.296875 -20.84375 L 6.296875 -12.890625 L 14.890625 -12.890625 L 14.890625 -20.84375 L 19.8125 -20.84375 L 19.8125 0 L 14.890625 0 L 14.890625 -8.546875 L 6.296875 -8.546875 L 6.296875 0 Z M 1.375 0 "/></g></g></g><g fill="#ffffff" fill-opacity="1"><g transform="translate(132.730691, 256.368261)"><g><path d="M 1.78125 0 L 1.78125 -3.875 L 4.71875 -3.875 L 4.71875 -16.96875 L 1.78125 -16.96875 L 1.78125 -20.84375 L 12.515625 -20.84375 L 12.515625 -16.96875 L 9.640625 -16.96875 L 9.640625 -3.875 L 12.515625 -3.875 L 12.515625 0 Z M 1.78125 0 "/></g></g></g><g fill="#ffffff" fill-opacity="1"><g transform="translate(147.015864, 256.368261)"><g><path d="M 7.171875 0 L 7.171875 -16.5 L 0.46875 -16.5 L 0.46875 -20.84375 L 18.78125 -20.84375 L 18.78125 -16.5 L 12.078125 -16.5 L 12.078125 0 Z M 7.171875 0 "/></g></g></g><g fill="#ffffff" fill-opacity="1"><g transform="translate(166.260291, 256.368261)"><g><path d="M 1.375 0 L 1.375 -20.84375 L 17.40625 -20.84375 L 17.40625 -16.5 L 6.296875 -16.5 L 6.296875 -12.890625 L 13.078125 -12.890625 L 13.078125 -8.546875 L 6.296875 -8.546875 L 6.296875 -4.34375 L 17.40625 -4.34375 L 17.40625 0 Z M 1.375 0 "/></g></g></g><g fill="#ffffff" fill-opacity="1"><g transform="translate(184.35068, 256.368261)"><g/></g></g><g fill="#ffffff" fill-opacity="1"><g transform="translate(194.331583, 256.368261)"><g><path d="M 1.375 0 L 1.375 -20.84375 L 17.40625 -20.84375 L 17.40625 -16.5 L 6.296875 -16.5 L 6.296875 -12.890625 L 13.078125 -12.890625 L 13.078125 -8.546875 L 6.296875 -8.546875 L 6.296875 -4.34375 L 17.40625 -4.34375 L 17.40625 0 Z M 1.375 0 "/></g></g></g><g fill="#ffffff" fill-opacity="1"><g transform="translate(212.421972, 256.368261)"><g><path d="M 0.15625 0 L 8.046875 -20.84375 L 13.484375 -20.84375 L 21.375 0 L 16 0 L 14.765625 -3.71875 L 6.765625 -3.71875 L 5.515625 0 Z M 8.109375 -7.703125 L 13.421875 -7.703125 L 10.734375 -15.625 Z M 8.109375 -7.703125 "/></g></g></g><g fill="#ffffff" fill-opacity="1"><g transform="translate(233.943298, 256.368261)"><g><path d="M 10.984375 0.375 C 8.941406 0.375 7.179688 -0.0664062 5.703125 -0.953125 C 4.234375 -1.835938 3.097656 -3.09375 2.296875 -4.71875 C 1.492188 -6.351562 1.09375 -8.273438 1.09375 -10.484375 C 1.09375 -12.691406 1.539062 -14.59375 2.4375 -16.1875 C 3.332031 -17.789062 4.570312 -19.03125 6.15625 -19.90625 C 7.75 -20.78125 9.597656 -21.21875 11.703125 -21.21875 C 13.535156 -21.21875 15.179688 -20.851562 16.640625 -20.125 C 18.109375 -19.394531 19.257812 -18.320312 20.09375 -16.90625 L 15.84375 -15.171875 C 15.519531 -15.703125 15.007812 -16.164062 14.3125 -16.5625 C 13.613281 -16.957031 12.722656 -17.15625 11.640625 -17.15625 C 10.660156 -17.15625 9.765625 -16.90625 8.953125 -16.40625 C 8.140625 -15.90625 7.492188 -15.160156 7.015625 -14.171875 C 6.535156 -13.191406 6.296875 -11.960938 6.296875 -10.484375 C 6.296875 -8.296875 6.796875 -6.613281 7.796875 -5.4375 C 8.796875 -4.269531 10.109375 -3.6875 11.734375 -3.6875 C 12.503906 -3.6875 13.242188 -3.796875 13.953125 -4.015625 C 14.660156 -4.234375 15.238281 -4.597656 15.6875 -5.109375 C 16.144531 -5.628906 16.375 -6.328125 16.375 -7.203125 L 16.375 -7.796875 L 11.703125 -7.796875 L 11.703125 -11.796875 L 21.3125 -11.796875 L 21.3125 0 L 18.0625 0 L 17.375 -2.3125 C 16.050781 -0.519531 13.921875 0.375 10.984375 0.375 Z M 10.984375 0.375 "/></g></g></g><g fill="#ffffff" fill-opacity="1"><g transform="translate(256.369136, 256.368261)"><g><path d="M 1.375 0 L 1.375 -20.84375 L 6.296875 -20.84375 L 6.296875 -4.34375 L 16.28125 -4.34375 L 16.28125 0 Z M 1.375 0 "/></g></g></g><g fill="#ffffff" fill-opacity="1"><g transform="translate(273.11834, 256.368261)"><g><path d="M 1.375 0 L 1.375 -20.84375 L 17.40625 -20.84375 L 17.40625 -16.5 L 6.296875 -16.5 L 6.296875 -12.890625 L 13.078125 -12.890625 L 13.078125 -8.546875 L 6.296875 -8.546875 L 6.296875 -4.34375 L 17.40625 -4.34375 L 17.40625 0 Z M 1.375 0 "/></g></g></g><g fill="#ffffff" fill-opacity="1"><g transform="translate(128.046652, 274.927419)"><g><path d="M 3.300781 -4.015625 C 4.40625 -3.753906 5.15625 -3.464844 5.558594 -3.136719 C 5.835938 -2.910156 5.972656 -2.621094 5.972656 -2.273438 C 5.972656 -1.921875 5.898438 -1.632812 5.746094 -1.429688 C 5.371094 -0.902344 4.695312 -0.640625 3.738281 -0.640625 C 2.410156 -0.640625 1.65625 -1.09375 1.492188 -1.996094 L 0.464844 -1.996094 C 0.765625 -0.550781 1.855469 0.164062 3.738281 0.164062 C 4.582031 0.164062 5.285156 -0.0117188 5.847656 -0.390625 C 6.527344 -0.828125 6.878906 -1.480469 6.878906 -2.335938 C 6.878906 -3.035156 6.601562 -3.578125 6.050781 -3.953125 C 5.660156 -4.230469 5.03125 -4.480469 4.167969 -4.707031 C 3.289062 -4.933594 2.722656 -5.121094 2.460938 -5.257812 C 1.882812 -5.546875 1.59375 -5.949219 1.605469 -6.476562 C 1.605469 -6.75 1.65625 -6.988281 1.78125 -7.164062 C 2.109375 -7.65625 2.6875 -7.90625 3.515625 -7.90625 C 4.679688 -7.90625 5.347656 -7.53125 5.523438 -6.800781 L 6.476562 -6.800781 C 6.160156 -8.03125 5.171875 -8.660156 3.515625 -8.660156 C 2.761719 -8.660156 2.097656 -8.457031 1.542969 -8.058594 C 0.980469 -7.65625 0.691406 -7.066406 0.691406 -6.261719 C 0.691406 -5.171875 1.570312 -4.417969 3.300781 -4.015625 Z M 3.300781 -4.015625 "/></g></g></g><g fill="#ffffff" fill-opacity="1"><g transform="translate(137.759763, 274.927419)"><g><path d="M 2.320312 -3.136719 L 3.878906 -7.066406 L 5.421875 -3.136719 Z M 7.617188 0 L 3.878906 -9.125 L 0.125 0 L 1.078125 0 L 1.996094 -2.320312 L 5.746094 -2.320312 L 6.664062 0 Z M 7.617188 0 "/></g></g></g><g fill="#ffffff" fill-opacity="1"><g transform="translate(148.012465, 274.927419)"><g><path d="M 1.820312 -0.878906 L 1.820312 -8.535156 L 0.941406 -8.535156 L 0.941406 0 L 4.871094 0 L 4.871094 -0.878906 Z M 1.820312 -0.878906 "/></g></g></g><g fill="#ffffff" fill-opacity="1"><g transform="translate(155.642523, 274.927419)"><g><path d="M 6.011719 -7.71875 L 6.011719 -8.535156 L 0.941406 -8.535156 L 0.941406 0 L 1.820312 0 L 1.820312 -3.851562 L 5.886719 -3.851562 L 5.886719 -4.679688 L 1.820312 -4.679688 L 1.820312 -7.71875 Z M 6.011719 -7.71875 "/></g></g></g><g fill="#ffffff" fill-opacity="1"><g transform="translate(164.414499, 274.927419)"><g><path d="M 8.457031 -4.292969 C 8.457031 -3.3125 8.105469 -2.484375 7.429688 -1.808594 C 6.738281 -1.117188 5.910156 -0.777344 4.945312 -0.777344 C 3.976562 -0.777344 3.148438 -1.117188 2.472656 -1.808594 C 1.78125 -2.484375 1.441406 -3.3125 1.441406 -4.292969 C 1.441406 -5.246094 1.78125 -6.074219 2.472656 -6.765625 C 3.148438 -7.441406 3.976562 -7.792969 4.945312 -7.792969 C 5.910156 -7.792969 6.738281 -7.441406 7.429688 -6.765625 C 8.105469 -6.074219 8.457031 -5.246094 8.457031 -4.292969 Z M 9.335938 -4.292969 C 9.335938 -4.894531 9.210938 -5.460938 8.984375 -6 C 8.757812 -6.527344 8.445312 -6.988281 8.042969 -7.390625 C 7.644531 -7.78125 7.179688 -8.09375 6.652344 -8.320312 C 6.113281 -8.546875 5.546875 -8.671875 4.945312 -8.671875 C 4.34375 -8.671875 3.765625 -8.546875 3.238281 -8.320312 C 2.710938 -8.09375 2.246094 -7.78125 1.84375 -7.390625 C 1.441406 -6.988281 1.128906 -6.527344 0.902344 -6 C 0.675781 -5.460938 0.566406 -4.894531 0.566406 -4.292969 C 0.566406 -3.691406 0.675781 -3.113281 0.902344 -2.585938 C 1.128906 -2.046875 1.441406 -1.582031 1.84375 -1.179688 C 2.246094 -0.777344 2.710938 -0.464844 3.238281 -0.238281 C 3.765625 -0.0117188 4.34375 0.101562 4.945312 0.101562 C 5.546875 0.101562 6.113281 -0.0117188 6.652344 -0.238281 C 7.179688 -0.464844 7.644531 -0.777344 8.042969 -1.179688 C 8.445312 -1.582031 8.757812 -2.046875 8.984375 -2.585938 C 9.210938 -3.113281 9.335938 -3.691406 9.335938 -4.292969 Z M 9.335938 -4.292969 "/></g></g></g><g fill="#ffffff" fill-opacity="1"><g transform="translate(176.825545, 274.927419)"><g><path d="M 1.820312 -4.214844 L 1.820312 -7.691406 L 3.800781 -7.691406 C 4.316406 -7.691406 4.730469 -7.53125 5.046875 -7.203125 C 5.347656 -6.878906 5.507812 -6.476562 5.507812 -5.972656 C 5.507812 -5.472656 5.347656 -5.058594 5.019531 -4.71875 C 4.695312 -4.378906 4.292969 -4.214844 3.800781 -4.214844 Z M 6.386719 -5.960938 C 6.386719 -6.6875 6.113281 -7.316406 5.585938 -7.804688 C 5.070312 -8.28125 4.429688 -8.535156 3.675781 -8.535156 L 0.941406 -8.535156 L 0.941406 0 L 1.820312 0 L 1.820312 -3.375 L 2.835938 -3.375 L 5.347656 0 L 6.527344 0 L 3.890625 -3.375 C 4.554688 -3.414062 5.121094 -3.652344 5.585938 -4.089844 C 6.113281 -4.582031 6.386719 -5.207031 6.386719 -5.960938 Z M 6.386719 -5.960938 "/></g></g></g><g fill="#ffffff" fill-opacity="1"><g transform="translate(186.162205, 274.927419)"><g><path d="M 7.566406 -4.265625 C 7.566406 -4.882812 7.441406 -5.445312 7.214844 -5.972656 C 6.988281 -6.5 6.675781 -6.953125 6.289062 -7.328125 C 5.886719 -7.707031 5.421875 -7.996094 4.894531 -8.207031 C 4.355469 -8.421875 3.777344 -8.535156 3.175781 -8.535156 L 0.941406 -8.535156 L 0.941406 0 L 3.175781 0 C 3.777344 0 4.355469 -0.101562 4.894531 -0.3125 C 5.421875 -0.527344 5.886719 -0.828125 6.289062 -1.203125 C 6.675781 -1.582031 6.988281 -2.019531 7.214844 -2.546875 C 7.441406 -3.074219 7.566406 -3.640625 7.566406 -4.265625 Z M 6.714844 -4.265625 C 6.714844 -3.289062 6.363281 -2.472656 5.683594 -1.832031 C 5.007812 -1.191406 4.179688 -0.878906 3.199219 -0.878906 L 1.820312 -0.878906 L 1.820312 -7.65625 L 3.199219 -7.65625 C 4.179688 -7.65625 5.007812 -7.328125 5.683594 -6.703125 C 6.363281 -6.050781 6.714844 -5.234375 6.714844 -4.265625 Z M 6.714844 -4.265625 "/></g></g></g><g fill="#ffffff" fill-opacity="1"><g transform="translate(196.803911, 274.927419)"><g/></g></g><g fill="#ffffff" fill-opacity="1"><g transform="translate(202.70228, 274.927419)"><g><path d="M 3.300781 -4.328125 L 5.171875 -1.933594 C 5.046875 -1.808594 4.90625 -1.667969 4.757812 -1.53125 C 4.203125 -1.003906 3.691406 -0.753906 3.238281 -0.753906 C 2.8125 -0.753906 2.433594 -0.917969 2.132812 -1.253906 C 1.832031 -1.582031 1.683594 -1.957031 1.683594 -2.382812 C 1.683594 -2.734375 1.882812 -3.113281 2.296875 -3.527344 C 2.484375 -3.714844 2.8125 -3.976562 3.300781 -4.328125 Z M 3.226562 -5.722656 C 2.847656 -6.113281 2.671875 -6.476562 2.671875 -6.851562 C 2.671875 -7.214844 2.773438 -7.480469 2.988281 -7.65625 C 3.1875 -7.820312 3.425781 -7.894531 3.675781 -7.882812 C 3.929688 -7.867188 4.167969 -7.78125 4.378906 -7.605469 C 4.582031 -7.429688 4.695312 -7.179688 4.695312 -6.878906 C 4.695312 -6.5625 4.554688 -6.273438 4.292969 -6.011719 C 4.167969 -5.886719 4.039062 -5.785156 3.902344 -5.683594 C 3.765625 -5.585938 3.640625 -5.496094 3.515625 -5.410156 C 3.414062 -5.507812 3.324219 -5.621094 3.226562 -5.722656 Z M 7.46875 -3.324219 L 6.75 -3.800781 L 6.273438 -3.199219 C 6.113281 -3 5.949219 -2.796875 5.785156 -2.597656 L 4.027344 -4.84375 C 4.179688 -4.96875 4.355469 -5.09375 4.53125 -5.246094 C 5.183594 -5.785156 5.507812 -6.335938 5.507812 -6.890625 C 5.507812 -7.40625 5.332031 -7.832031 4.980469 -8.167969 C 4.644531 -8.496094 4.214844 -8.660156 3.691406 -8.660156 C 3.136719 -8.660156 2.6875 -8.484375 2.359375 -8.132812 C 2.019531 -7.78125 1.855469 -7.339844 1.855469 -6.816406 C 1.855469 -6.289062 2.160156 -5.671875 2.761719 -4.980469 C 2.511719 -4.792969 2.257812 -4.617188 2.03125 -4.441406 C 1.21875 -3.851562 0.816406 -3.136719 0.816406 -2.320312 C 0.816406 -1.605469 1.042969 -1.015625 1.519531 -0.539062 C 1.746094 -0.3125 2.007812 -0.152344 2.308594 -0.0234375 C 2.609375 0.101562 2.960938 0.152344 3.351562 0.152344 C 3.753906 0.152344 4.191406 0 4.707031 -0.328125 C 4.96875 -0.476562 5.296875 -0.765625 5.722656 -1.191406 L 6.652344 0.0234375 L 7.804688 0 L 6.335938 -1.921875 C 6.964844 -2.671875 7.339844 -3.148438 7.46875 -3.324219 Z M 7.46875 -3.324219 "/></g></g></g><g fill="#ffffff" fill-opacity="1"><g transform="translate(213.858471, 274.927419)"><g/></g></g><g fill="#ffffff" fill-opacity="1"><g transform="translate(219.75684, 274.927419)"><g><path d="M 8.773438 -2.609375 L 7.804688 -2.609375 C 7.503906 -2.058594 7.089844 -1.605469 6.5625 -1.28125 C 6.035156 -0.941406 5.445312 -0.777344 4.820312 -0.777344 C 3.878906 -0.777344 3.074219 -1.117188 2.410156 -1.820312 C 1.757812 -2.484375 1.441406 -3.300781 1.441406 -4.253906 C 1.441406 -5.207031 1.757812 -6.023438 2.410156 -6.703125 C 2.710938 -7.015625 3.074219 -7.265625 3.488281 -7.453125 C 3.890625 -7.644531 4.292969 -7.742188 4.695312 -7.742188 C 5.082031 -7.742188 5.421875 -7.691406 5.722656 -7.605469 C 6.640625 -7.328125 7.328125 -6.777344 7.792969 -5.9375 L 8.757812 -5.9375 C 8.433594 -6.738281 7.917969 -7.390625 7.203125 -7.894531 C 6.476562 -8.394531 5.683594 -8.648438 4.820312 -8.648438 C 3.625 -8.648438 2.621094 -8.207031 1.792969 -7.339844 C 1.40625 -6.941406 1.105469 -6.464844 0.890625 -5.9375 C 0.664062 -5.410156 0.566406 -4.84375 0.566406 -4.253906 C 0.566406 -3.050781 0.964844 -2.03125 1.792969 -1.179688 C 2.621094 -0.300781 3.625 0.125 4.820312 0.125 C 5.683594 0.125 6.476562 -0.125 7.214844 -0.628906 C 7.929688 -1.128906 8.445312 -1.78125 8.773438 -2.609375 Z M 8.773438 -2.609375 "/></g></g></g><g fill="#ffffff" fill-opacity="1"><g transform="translate(231.414967, 274.927419)"><g><path d="M 8.457031 -4.292969 C 8.457031 -3.3125 8.105469 -2.484375 7.429688 -1.808594 C 6.738281 -1.117188 5.910156 -0.777344 4.945312 -0.777344 C 3.976562 -0.777344 3.148438 -1.117188 2.472656 -1.808594 C 1.78125 -2.484375 1.441406 -3.3125 1.441406 -4.292969 C 1.441406 -5.246094 1.78125 -6.074219 2.472656 -6.765625 C 3.148438 -7.441406 3.976562 -7.792969 4.945312 -7.792969 C 5.910156 -7.792969 6.738281 -7.441406 7.429688 -6.765625 C 8.105469 -6.074219 8.457031 -5.246094 8.457031 -4.292969 Z M 9.335938 -4.292969 C 9.335938 -4.894531 9.210938 -5.460938 8.984375 -6 C 8.757812 -6.527344 8.445312 -6.988281 8.042969 -7.390625 C 7.644531 -7.78125 7.179688 -8.09375 6.652344 -8.320312 C 6.113281 -8.546875 5.546875 -8.671875 4.945312 -8.671875 C 4.34375 -8.671875 3.765625 -8.546875 3.238281 -8.320312 C 2.710938 -8.09375 2.246094 -7.78125 1.84375 -7.390625 C 1.441406 -6.988281 1.128906 -6.527344 0.902344 -6 C 0.675781 -5.460938 0.566406 -4.894531 0.566406 -4.292969 C 0.566406 -3.691406 0.675781 -3.113281 0.902344 -2.585938 C 1.128906 -2.046875 1.441406 -1.582031 1.84375 -1.179688 C 2.246094 -0.777344 2.710938 -0.464844 3.238281 -0.238281 C 3.765625 -0.0117188 4.34375 0.101562 4.945312 0.101562 C 5.546875 0.101562 6.113281 -0.0117188 6.652344 -0.238281 C 7.179688 -0.464844 7.644531 -0.777344 8.042969 -1.179688 C 8.445312 -1.582031 8.757812 -2.046875 8.984375 -2.585938 C 9.210938 -3.113281 9.335938 -3.691406 9.335938 -4.292969 Z M 9.335938 -4.292969 "/></g></g></g><g fill="#ffffff" fill-opacity="1"><g transform="translate(243.826014, 274.927419)"><g><path d="M 1.667969 0.125 C 1.855469 0.125 2.03125 0.0625 2.183594 -0.0742188 C 2.335938 -0.214844 2.410156 -0.375 2.410156 -0.578125 C 2.410156 -0.777344 2.335938 -0.941406 2.183594 -1.078125 C 2.03125 -1.21875 1.871094 -1.292969 1.667969 -1.292969 C 1.46875 -1.292969 1.292969 -1.21875 1.15625 -1.078125 C 1.003906 -0.929688 0.941406 -0.765625 0.941406 -0.578125 C 0.941406 -0.375 1.003906 -0.214844 1.15625 -0.0742188 C 1.304688 0.0625 1.46875 0.125 1.667969 0.125 Z M 1.667969 0.125 "/></g></g></g></svg>