<svg xmlns="http://www.w3.org/2000/svg" xmlns:xlink="http://www.w3.org/1999/xlink" width="500" zoomAndPan="magnify" viewBox="0 0 375 374.999991" height="500" preserveAspectRatio="xMidYMid meet" version="1.0"><defs><clipPath id="2ba2ce5506"><path d="M 21 37.5 L 354 37.5 L 354 315.75 L 21 315.75 Z M 21 37.5 " clip-rule="nonzero"/></clipPath></defs><rect x="-37.5" width="450" fill="#ffffff" y="-37.499999" height="449.999989" fill-opacity="1"/><rect x="-37.5" width="450" fill="#e91e63" y="-37.499999" height="449.999989" fill-opacity="1"/><g clip-path="url(#2ba2ce5506)"><path fill="#ffffff" d="M 187.492188 303.921875 C 215.113281 270.617188 246.960938 285.621094 230.828125 249.320312 C 202.523438 279.078125 205.828125 205.410156 235.363281 215.15625 C 242.601562 217.542969 250.84375 249.667969 268.097656 249.03125 C 258.851562 238.339844 262.03125 224.183594 262.03125 224.183594 C 270.121094 234.875 291.789062 224.472656 291.789062 224.472656 C 275.320312 223.894531 272.429688 209.742188 272.429688 209.742188 C 290.34375 226.785156 318.367188 198.761719 318.367188 198.761719 C 298.144531 211.761719 276.476562 195.875 276.476562 195.875 C 323.855469 205.984375 338.589844 163.515625 338.589844 163.515625 C 323.855469 185.183594 275.609375 183.164062 275.609375 183.164062 C 363.046875 170.046875 352.746094 95.914062 352.746094 95.914062 C 320.140625 154.449219 262.03125 165.828125 262.03125 165.828125 C 367.769531 118.738281 344.945312 37.558594 344.945312 37.558594 C 339.371094 121.4375 227.21875 104.175781 214.074219 167.5625 C 189.027344 140.601562 206.886719 117.914062 214.074219 130.292969 C 214.074219 130.292969 219.996094 116.136719 205.839844 115.992188 C 166.269531 95.917969 163.140625 175.222656 160.917969 167.5625 C 142.859375 105.394531 47.242188 123.527344 30.046875 37.558594 C 30.046875 37.558594 7.222656 118.738281 112.960938 165.828125 C 112.960938 165.828125 52.332031 158.882812 22.246094 95.914062 C 22.246094 95.914062 13.394531 172.585938 99.382812 183.164062 C 99.382812 183.164062 51.132812 185.1875 36.402344 163.519531 C 36.402344 163.519531 51.132812 205.984375 98.515625 195.875 C 98.515625 195.875 76.847656 211.765625 56.625 198.765625 C 56.625 198.765625 84.648438 226.789062 102.558594 209.742188 C 102.558594 209.742188 99.671875 223.898438 83.203125 224.476562 C 83.203125 224.476562 104.871094 234.875 112.960938 224.1875 C 112.960938 224.1875 116.136719 238.339844 106.894531 249.03125 C 124.398438 249.679688 131.964844 217.464844 140.113281 215.003906 C 169.199219 206.21875 172.3125 278.914062 144.160156 249.320312 C 128.027344 285.621094 159.878906 270.617188 187.496094 303.921875 Z M 234.949219 273.570312 C 237.988281 293.925781 211.1875 286.945312 187.492188 315.515625 C 163.800781 286.945312 137 293.925781 140.039062 273.570312 C 142.652344 287.210938 166.316406 284.347656 187.492188 309.882812 C 208.671875 284.34375 232.335938 287.210938 234.949219 273.570312 Z M 199.335938 116.570312 C 199.335938 116.570312 196.988281 117.832031 194.277344 118.109375 C 190.253906 118.515625 193.695312 115.441406 194.671875 115.636719 Z M 199.335938 116.570312 " fill-opacity="1" fill-rule="evenodd"/></g></svg>